<svg width="293" height="22" viewBox="0 0 293 22" fill="none" xmlns="http://www.w3.org/2000/svg">
<path d="M10.081 12.38C10.081 13.9787 9.64837 15.2033 8.78303 16.054C7.9177 16.89 6.7297 17.308 5.21903 17.308C4.4417 17.308 3.7377 17.2053 3.10703 17C2.47636 16.78 1.9337 16.4647 1.47903 16.054C1.02436 15.6287 0.672365 15.1153 0.423031 14.514C0.173698 13.898 0.0490313 13.1867 0.0490313 12.38V10.928H2.95303V12.38C2.95303 13.0693 3.1437 13.612 3.52503 14.008C3.90636 14.3893 4.4417 14.58 5.13103 14.58C5.77637 14.58 6.27503 14.3893 6.62703 14.008C6.9937 13.6267 7.17703 13.084 7.17703 12.38V4.328H5.59303V1.6H11.401V4.328H10.081V12.38ZM24.5857 11.676C24.5857 12.5853 24.4317 13.392 24.1237 14.096C23.8157 14.7853 23.3977 15.372 22.8697 15.856C22.3417 16.3253 21.7331 16.6847 21.0437 16.934C20.3691 17.1833 19.6577 17.308 18.9097 17.308C18.1617 17.308 17.4431 17.1833 16.7537 16.934C16.0791 16.6847 15.4777 16.3253 14.9497 15.856C14.4217 15.372 14.0037 14.7853 13.6957 14.096C13.3877 13.392 13.2337 12.5853 13.2337 11.676V11.412C13.2337 10.5173 13.3877 9.72533 13.6957 9.036C14.0037 8.332 14.4217 7.738 14.9497 7.254C15.4777 6.77 16.0791 6.40333 16.7537 6.154C17.4431 5.90467 18.1617 5.78 18.9097 5.78C19.6577 5.78 20.3691 5.90467 21.0437 6.154C21.7331 6.40333 22.3417 6.77 22.8697 7.254C23.3977 7.738 23.8157 8.332 24.1237 9.036C24.4317 9.72533 24.5857 10.5173 24.5857 11.412V11.676ZM18.9097 14.668C19.3057 14.668 19.6797 14.602 20.0317 14.47C20.3837 14.338 20.6917 14.1473 20.9557 13.898C21.2197 13.6487 21.4251 13.348 21.5717 12.996C21.7331 12.6293 21.8137 12.2187 21.8137 11.764V11.324C21.8137 10.8693 21.7331 10.466 21.5717 10.114C21.4251 9.74733 21.2197 9.43933 20.9557 9.19C20.6917 8.94067 20.3837 8.75 20.0317 8.618C19.6797 8.486 19.3057 8.42 18.9097 8.42C18.5137 8.42 18.1397 8.486 17.7877 8.618C17.4357 8.75 17.1277 8.94067 16.8637 9.19C16.5997 9.43933 16.3871 9.74733 16.2257 10.114C16.0791 10.466 16.0057 10.8693 16.0057 11.324V11.764C16.0057 12.2187 16.0791 12.6293 16.2257 12.996C16.3871 13.348 16.5997 13.6487 16.8637 13.898C17.1277 14.1473 17.4357 14.338 17.7877 14.47C18.1397 14.602 18.5137 14.668 18.9097 14.668ZM27.5624 14.36H31.2584V8.728H27.8264V6.088H34.0304V14.36H37.1984V17H27.5624V14.36ZM34.7124 2.854C34.7124 3.14733 34.6538 3.426 34.5364 3.69C34.4338 3.93933 34.2871 4.15933 34.0964 4.35C33.9058 4.526 33.6784 4.67267 33.4144 4.79C33.1651 4.89267 32.9011 4.944 32.6224 4.944C32.3291 4.944 32.0578 4.89267 31.8084 4.79C31.5591 4.67267 31.3391 4.526 31.1484 4.35C30.9578 4.15933 30.8038 3.93933 30.6864 3.69C30.5838 3.426 30.5324 3.14733 30.5324 2.854C30.5324 2.56067 30.5838 2.28933 30.6864 2.04C30.8038 1.776 30.9578 1.556 31.1484 1.38C31.3391 1.18933 31.5591 1.04267 31.8084 0.94C32.0578 0.822666 32.3291 0.763999 32.6224 0.763999C32.9011 0.763999 33.1651 0.822666 33.4144 0.94C33.6784 1.04267 33.9058 1.18933 34.0964 1.38C34.2871 1.556 34.4338 1.776 34.5364 2.04C34.6538 2.28933 34.7124 2.56067 34.7124 2.854ZM43.6071 17H40.8351V6.088H43.6071V7.716H44.0031C44.2525 7.1 44.6558 6.62333 45.2131 6.286C45.7705 5.94867 46.4231 5.78 47.1711 5.78C47.6991 5.78 48.1905 5.868 48.6451 6.044C49.1145 6.20533 49.5251 6.462 49.8771 6.814C50.2291 7.166 50.5005 7.61333 50.6911 8.156C50.8965 8.69867 50.9991 9.344 50.9991 10.092V17H48.2271V10.796C48.2271 10.0187 48.0365 9.41 47.6551 8.97C47.2885 8.51533 46.7531 8.288 46.0491 8.288C45.2278 8.288 44.6118 8.56667 44.2011 9.124C43.8051 9.66667 43.6071 10.4 43.6071 11.324V17ZM67.1165 7.584C67.1165 5.58933 67.6152 4.042 68.6125 2.942C69.6245 1.842 71.0179 1.292 72.7925 1.292C74.5672 1.292 75.9532 1.842 76.9505 2.942C77.9625 4.042 78.4685 5.58933 78.4685 7.584V11.016C78.4685 13.0693 77.9625 14.6313 76.9505 15.702C75.9532 16.7727 74.5672 17.308 72.7925 17.308C71.0179 17.308 69.6245 16.7727 68.6125 15.702C67.6152 14.6313 67.1165 13.0693 67.1165 11.016V7.584ZM72.7925 14.668C73.3205 14.668 73.7605 14.5873 74.1125 14.426C74.4645 14.25 74.7505 14.008 74.9705 13.7C75.1905 13.392 75.3445 13.0253 75.4325 12.6C75.5205 12.1747 75.5645 11.7053 75.5645 11.192V7.408C75.5645 6.924 75.5132 6.46933 75.4105 6.044C75.3079 5.61867 75.1465 5.252 74.9265 4.944C74.7065 4.636 74.4205 4.394 74.0685 4.218C73.7165 4.02733 73.2912 3.932 72.7925 3.932C72.2939 3.932 71.8685 4.02733 71.5165 4.218C71.1645 4.394 70.8785 4.636 70.6585 4.944C70.4385 5.252 70.2772 5.61867 70.1745 6.044C70.0719 6.46933 70.0205 6.924 70.0205 7.408V11.192C70.0205 11.7053 70.0645 12.1747 70.1525 12.6C70.2405 13.0253 70.3945 13.392 70.6145 13.7C70.8345 14.008 71.1205 14.25 71.4725 14.426C71.8245 14.5873 72.2645 14.668 72.7925 14.668ZM88.6393 6.088H91.4113V17H88.6393V15.416H88.2433C87.7593 16.6773 86.7179 17.308 85.1193 17.308C84.5766 17.308 84.0706 17.22 83.6013 17.044C83.1319 16.868 82.7213 16.5967 82.3693 16.23C82.0173 15.8633 81.7386 15.4087 81.5333 14.866C81.3426 14.3087 81.2473 13.656 81.2473 12.908V6.088H84.0193V12.336C84.0193 13.1133 84.2026 13.722 84.5693 14.162C84.9359 14.5873 85.4859 14.8 86.2193 14.8C87.0553 14.8 87.6639 14.536 88.0453 14.008C88.4413 13.4653 88.6393 12.732 88.6393 11.808V6.088ZM94.19 6.088H98.81V7.672H99.206C99.4113 7.07067 99.756 6.60867 100.24 6.286C100.739 5.94867 101.333 5.78 102.022 5.78C103.107 5.78 103.98 6.12467 104.64 6.814C105.3 7.48867 105.63 8.52267 105.63 9.916V10.4L102.77 10.664V10.356C102.77 9.75467 102.616 9.278 102.308 8.926C102 8.55933 101.538 8.376 100.922 8.376C100.306 8.376 99.822 8.58867 99.47 9.014C99.118 9.43933 98.942 10.048 98.942 10.84V14.36H101.45V17H93.926V14.36H96.17V8.728H94.19V6.088ZM132.703 17H127.643L126.939 5.296V3.184H126.411V5.296L125.707 17H120.647L120.119 1.6H122.759L123.111 13.304V15.284H123.639V13.304L124.343 1.6H129.007L129.711 13.304V15.284H130.239V13.304L130.591 1.6H133.231L132.703 17ZM137.572 12.446C137.587 12.7687 137.66 13.0693 137.792 13.348C137.939 13.612 138.129 13.8467 138.364 14.052C138.613 14.2427 138.892 14.3967 139.2 14.514C139.523 14.6167 139.86 14.668 140.212 14.668C140.901 14.668 141.429 14.5507 141.796 14.316C142.163 14.0667 142.427 13.7733 142.588 13.436L144.964 14.756C144.832 15.0347 144.649 15.328 144.414 15.636C144.179 15.9293 143.871 16.2007 143.49 16.45C143.123 16.6993 142.669 16.9047 142.126 17.066C141.598 17.2273 140.975 17.308 140.256 17.308C139.435 17.308 138.687 17.176 138.012 16.912C137.337 16.648 136.751 16.2667 136.252 15.768C135.768 15.2693 135.387 14.6607 135.108 13.942C134.844 13.2233 134.712 12.4093 134.712 11.5V11.368C134.712 10.532 134.851 9.76933 135.13 9.08C135.423 8.39067 135.819 7.804 136.318 7.32C136.817 6.836 137.396 6.462 138.056 6.198C138.731 5.91933 139.449 5.78 140.212 5.78C141.151 5.78 141.957 5.94867 142.632 6.286C143.307 6.60867 143.864 7.02667 144.304 7.54C144.744 8.03867 145.067 8.596 145.272 9.212C145.477 9.81333 145.58 10.4 145.58 10.972V12.446H137.572ZM140.19 8.288C139.486 8.288 138.914 8.47133 138.474 8.838C138.034 9.19 137.748 9.60067 137.616 10.07H142.764C142.676 9.55667 142.397 9.13133 141.928 8.794C141.473 8.45667 140.894 8.288 140.19 8.288ZM151.043 12.446C151.057 12.7687 151.131 13.0693 151.263 13.348C151.409 13.612 151.6 13.8467 151.835 14.052C152.084 14.2427 152.363 14.3967 152.671 14.514C152.993 14.6167 153.331 14.668 153.683 14.668C154.372 14.668 154.9 14.5507 155.267 14.316C155.633 14.0667 155.897 13.7733 156.059 13.436L158.435 14.756C158.303 15.0347 158.119 15.328 157.885 15.636C157.65 15.9293 157.342 16.2007 156.961 16.45C156.594 16.6993 156.139 16.9047 155.597 17.066C155.069 17.2273 154.445 17.308 153.727 17.308C152.905 17.308 152.157 17.176 151.483 16.912C150.808 16.648 150.221 16.2667 149.723 15.768C149.239 15.2693 148.857 14.6607 148.579 13.942C148.315 13.2233 148.183 12.4093 148.183 11.5V11.368C148.183 10.532 148.322 9.76933 148.601 9.08C148.894 8.39067 149.29 7.804 149.789 7.32C150.287 6.836 150.867 6.462 151.527 6.198C152.201 5.91933 152.92 5.78 153.683 5.78C154.621 5.78 155.428 5.94867 156.103 6.286C156.777 6.60867 157.335 7.02667 157.775 7.54C158.215 8.03867 158.537 8.596 158.743 9.212C158.948 9.81333 159.051 10.4 159.051 10.972V12.446H151.043ZM153.661 8.288C152.957 8.288 152.385 8.47133 151.945 8.838C151.505 9.19 151.219 9.60067 151.087 10.07H156.235C156.147 9.55667 155.868 9.13133 155.399 8.794C154.944 8.45667 154.365 8.288 153.661 8.288ZM165.723 10.092H166.251L169.155 6.088H172.191V6.22L168.671 11.214V11.61L172.543 16.868V17H169.375L166.251 12.732H165.723V17H162.951V1.6H165.723V10.092ZM175.476 14.36H179.304V4.24H175.608V1.6H182.076V14.36H185.64V17H175.476V14.36ZM196.405 6.088H199.177V19.684C199.177 20.1827 199.016 20.5933 198.693 20.916C198.385 21.2387 197.982 21.4 197.483 21.4H190.993V18.76H195.811C196.207 18.76 196.405 18.54 196.405 18.1V15.416H196.009C195.525 16.6773 194.484 17.308 192.885 17.308C192.342 17.308 191.836 17.22 191.367 17.044C190.898 16.868 190.487 16.5967 190.135 16.23C189.783 15.8633 189.504 15.4087 189.299 14.866C189.108 14.3087 189.013 13.656 189.013 12.908V6.088H191.785V12.336C191.785 13.1133 191.968 13.722 192.335 14.162C192.702 14.5873 193.252 14.8 193.985 14.8C194.821 14.8 195.43 14.536 195.811 14.008C196.207 13.4653 196.405 12.732 196.405 11.808V6.088ZM215.25 1.6H220.838C222.745 1.6 224.16 2.04733 225.084 2.942C226.008 3.822 226.47 5.19333 226.47 7.056V11.544C226.47 13.4067 226.008 14.7853 225.084 15.68C224.16 16.56 222.745 17 220.838 17H215.25V14.206H216.702V4.372H215.25V1.6ZM220.838 14.228C221.85 14.228 222.554 13.9933 222.95 13.524C223.361 13.04 223.566 12.292 223.566 11.28V7.056C223.566 6.176 223.361 5.50867 222.95 5.054C222.554 4.59933 221.85 4.372 220.838 4.372H219.606V14.228H220.838ZM229.623 14.36H233.319V8.728H229.887V6.088H236.091V14.36H239.259V17H229.623V14.36ZM236.773 2.854C236.773 3.14733 236.714 3.426 236.597 3.69C236.494 3.93933 236.348 4.15933 236.157 4.35C235.966 4.526 235.739 4.67267 235.475 4.79C235.226 4.89267 234.962 4.944 234.683 4.944C234.39 4.944 234.118 4.89267 233.869 4.79C233.62 4.67267 233.4 4.526 233.209 4.35C233.018 4.15933 232.864 3.93933 232.747 3.69C232.644 3.426 232.593 3.14733 232.593 2.854C232.593 2.56067 232.644 2.28933 232.747 2.04C232.864 1.776 233.018 1.556 233.209 1.38C233.4 1.18933 233.62 1.04267 233.869 0.94C234.118 0.822666 234.39 0.763999 234.683 0.763999C234.962 0.763999 235.226 0.822666 235.475 0.94C235.739 1.04267 235.966 1.18933 236.157 1.38C236.348 1.556 236.494 1.776 236.597 2.04C236.714 2.28933 236.773 2.56067 236.773 2.854ZM250.684 15.416H250.288C250.17 15.6653 250.024 15.9073 249.848 16.142C249.686 16.362 249.466 16.56 249.188 16.736C248.924 16.912 248.601 17.0513 248.22 17.154C247.853 17.2567 247.406 17.308 246.878 17.308C246.203 17.308 245.572 17.1907 244.986 16.956C244.414 16.7067 243.908 16.3473 243.468 15.878C243.042 15.394 242.705 14.8073 242.456 14.118C242.221 13.4287 242.104 12.6367 242.104 11.742V11.346C242.104 10.466 242.228 9.68133 242.478 8.992C242.742 8.30267 243.094 7.72333 243.534 7.254C243.988 6.77 244.509 6.40333 245.096 6.154C245.697 5.90467 246.328 5.78 246.988 5.78C247.868 5.78 248.564 5.94867 249.078 6.286C249.591 6.60867 249.994 7.07067 250.288 7.672H250.684V6.088H253.456V19.684C253.456 20.1827 253.294 20.5933 252.972 20.916C252.664 21.2387 252.26 21.4 251.762 21.4H244.414V18.76H250.09C250.486 18.76 250.684 18.54 250.684 18.1V15.416ZM247.78 14.668C248.645 14.668 249.342 14.3967 249.87 13.854C250.412 13.2967 250.684 12.5707 250.684 11.676V11.412C250.684 10.5173 250.412 9.79867 249.87 9.256C249.342 8.69867 248.645 8.42 247.78 8.42C246.914 8.42 246.21 8.69133 245.668 9.234C245.14 9.762 244.876 10.488 244.876 11.412V11.676C244.876 12.6 245.14 13.3333 245.668 13.876C246.21 14.404 246.914 14.668 247.78 14.668ZM258.808 12.446C258.823 12.7687 258.896 13.0693 259.028 13.348C259.175 13.612 259.366 13.8467 259.6 14.052C259.85 14.2427 260.128 14.3967 260.436 14.514C260.759 14.6167 261.096 14.668 261.448 14.668C262.138 14.668 262.666 14.5507 263.032 14.316C263.399 14.0667 263.663 13.7733 263.824 13.436L266.2 14.756C266.068 15.0347 265.885 15.328 265.65 15.636C265.416 15.9293 265.108 16.2007 264.726 16.45C264.36 16.6993 263.905 16.9047 263.362 17.066C262.834 17.2273 262.211 17.308 261.492 17.308C260.671 17.308 259.923 17.176 259.248 16.912C258.574 16.648 257.987 16.2667 257.488 15.768C257.004 15.2693 256.623 14.6607 256.344 13.942C256.08 13.2233 255.948 12.4093 255.948 11.5V11.368C255.948 10.532 256.088 9.76933 256.366 9.08C256.66 8.39067 257.056 7.804 257.554 7.32C258.053 6.836 258.632 6.462 259.292 6.198C259.967 5.91933 260.686 5.78 261.448 5.78C262.387 5.78 263.194 5.94867 263.868 6.286C264.543 6.60867 265.1 7.02667 265.54 7.54C265.98 8.03867 266.303 8.596 266.508 9.212C266.714 9.81333 266.816 10.4 266.816 10.972V12.446H258.808ZM261.426 8.288C260.722 8.288 260.15 8.47133 259.71 8.838C259.27 9.19 258.984 9.60067 258.852 10.07H264C263.912 9.55667 263.634 9.13133 263.164 8.794C262.71 8.45667 262.13 8.288 261.426 8.288ZM273.313 9.168C273.313 9.52 273.496 9.77667 273.863 9.938C274.23 10.0847 274.897 10.2093 275.865 10.312C276.98 10.4293 277.889 10.7667 278.593 11.324C279.297 11.8667 279.649 12.6293 279.649 13.612V13.744C279.649 14.8293 279.253 15.6947 278.461 16.34C277.669 16.9853 276.554 17.308 275.117 17.308C274.266 17.308 273.54 17.198 272.939 16.978C272.338 16.758 271.839 16.4867 271.443 16.164C271.047 15.8267 270.739 15.46 270.519 15.064C270.314 14.6533 270.174 14.2573 270.101 13.876L272.653 13.04C272.77 13.5093 273.012 13.92 273.379 14.272C273.76 14.624 274.34 14.8 275.117 14.8C275.806 14.8 276.276 14.6973 276.525 14.492C276.789 14.272 276.921 14.0373 276.921 13.788C276.921 13.6413 276.884 13.5093 276.811 13.392C276.752 13.26 276.635 13.1427 276.459 13.04C276.283 12.9227 276.041 12.8273 275.733 12.754C275.44 12.6807 275.066 12.622 274.611 12.578C273.379 12.4753 272.396 12.16 271.663 11.632C270.944 11.0893 270.585 10.2973 270.585 9.256V9.124C270.585 8.58133 270.702 8.10467 270.937 7.694C271.172 7.28333 271.48 6.93867 271.861 6.66C272.242 6.36667 272.682 6.14667 273.181 6C273.68 5.85333 274.193 5.78 274.721 5.78C275.41 5.78 276.004 5.868 276.503 6.044C277.016 6.20533 277.449 6.42533 277.801 6.704C278.153 6.968 278.439 7.26867 278.659 7.606C278.879 7.92867 279.048 8.244 279.165 8.552L276.657 9.564C276.525 9.168 276.298 8.86 275.975 8.64C275.652 8.40533 275.234 8.288 274.721 8.288C274.252 8.288 273.9 8.376 273.665 8.552C273.43 8.71333 273.313 8.91867 273.313 9.168ZM283 6.088H286.234V1.6H289.006V6.088H292.944V8.728H289.006V13.7C289.006 14.14 289.204 14.36 289.6 14.36H292.548V17H287.928C287.429 17 287.018 16.8387 286.696 16.516C286.388 16.1933 286.234 15.7827 286.234 15.284V8.728H283V6.088Z" fill="white"/>
</svg>
