<svg width="92" height="21" viewBox="0 0 92 21" fill="none" xmlns="http://www.w3.org/2000/svg">
<path d="M0.511031 0.599999H10.235V3.372H3.41503V6.892H9.97103V9.664H3.41503V13.228H10.499V16H0.511031V0.599999ZM21.1317 5.088H24.1897L21.5497 10.214V10.61L24.3437 16H21.1537L19.1077 11.732H18.7117L16.6657 16H13.4757L16.2697 10.61V10.214L13.6077 5.088H16.6877L18.7117 9.092H19.1077L21.1317 5.088ZM29.5644 20.4H26.7924V5.088H29.5644V6.672H29.9604C30.2538 6.07067 30.6791 5.60867 31.2364 5.286C31.7938 4.94867 32.5051 4.78 33.3704 4.78C34.0158 4.78 34.6244 4.90467 35.1964 5.154C35.7831 5.40333 36.2891 5.77 36.7144 6.254C37.1544 6.72333 37.4991 7.30267 37.7484 7.992C38.0124 8.68133 38.1444 9.466 38.1444 10.346V10.742C38.1444 11.6367 38.0198 12.4287 37.7704 13.118C37.5211 13.8073 37.1838 14.394 36.7584 14.878C36.3331 15.3473 35.8271 15.7067 35.2404 15.956C34.6684 16.1907 34.0451 16.308 33.3704 16.308C32.8718 16.308 32.4391 16.2567 32.0724 16.154C31.7058 16.0513 31.3831 15.912 31.1044 15.736C30.8404 15.56 30.6131 15.362 30.4224 15.142C30.2464 14.9073 30.0924 14.6653 29.9604 14.416H29.5644V20.4ZM32.4684 13.668C33.3338 13.668 34.0304 13.404 34.5584 12.876C35.1011 12.3333 35.3724 11.6 35.3724 10.676V10.412C35.3724 9.488 35.1011 8.762 34.5584 8.234C34.0304 7.69133 33.3338 7.42 32.4684 7.42C31.6031 7.42 30.8991 7.69867 30.3564 8.256C29.8284 8.79867 29.5644 9.51733 29.5644 10.412V10.676C29.5644 11.5707 29.8284 12.2967 30.3564 12.854C30.8991 13.3967 31.6031 13.668 32.4684 13.668ZM40.7691 13.36H44.5971V3.24H40.9011V0.599999H47.3691V13.36H50.9331V16H40.7691V13.36ZM64.9978 10.676C64.9978 11.5853 64.8438 12.392 64.5358 13.096C64.2278 13.7853 63.8098 14.372 63.2818 14.856C62.7538 15.3253 62.1452 15.6847 61.4558 15.934C60.7812 16.1833 60.0698 16.308 59.3218 16.308C58.5738 16.308 57.8552 16.1833 57.1658 15.934C56.4912 15.6847 55.8898 15.3253 55.3618 14.856C54.8338 14.372 54.4158 13.7853 54.1078 13.096C53.7998 12.392 53.6458 11.5853 53.6458 10.676V10.412C53.6458 9.51733 53.7998 8.72533 54.1078 8.036C54.4158 7.332 54.8338 6.738 55.3618 6.254C55.8898 5.77 56.4912 5.40333 57.1658 5.154C57.8552 4.90467 58.5738 4.78 59.3218 4.78C60.0698 4.78 60.7812 4.90467 61.4558 5.154C62.1452 5.40333 62.7538 5.77 63.2818 6.254C63.8098 6.738 64.2278 7.332 64.5358 8.036C64.8438 8.72533 64.9978 9.51733 64.9978 10.412V10.676ZM59.3218 13.668C59.7178 13.668 60.0918 13.602 60.4438 13.47C60.7958 13.338 61.1038 13.1473 61.3678 12.898C61.6318 12.6487 61.8372 12.348 61.9838 11.996C62.1452 11.6293 62.2258 11.2187 62.2258 10.764V10.324C62.2258 9.86933 62.1452 9.466 61.9838 9.114C61.8372 8.74733 61.6318 8.43933 61.3678 8.19C61.1038 7.94067 60.7958 7.75 60.4438 7.618C60.0918 7.486 59.7178 7.42 59.3218 7.42C58.9258 7.42 58.5518 7.486 58.1998 7.618C57.8478 7.75 57.5398 7.94067 57.2758 8.19C57.0118 8.43933 56.7992 8.74733 56.6378 9.114C56.4912 9.466 56.4178 9.86933 56.4178 10.324V10.764C56.4178 11.2187 56.4912 11.6293 56.6378 11.996C56.7992 12.348 57.0118 12.6487 57.2758 12.898C57.5398 13.1473 57.8478 13.338 58.1998 13.47C58.5518 13.602 58.9258 13.668 59.3218 13.668ZM67.2485 5.088H71.8685V6.672H72.2645C72.4699 6.07067 72.8145 5.60867 73.2985 5.286C73.7972 4.94867 74.3912 4.78 75.0805 4.78C76.1659 4.78 77.0385 5.12467 77.6985 5.814C78.3585 6.48867 78.6885 7.52267 78.6885 8.916V9.4L75.8285 9.664V9.356C75.8285 8.75467 75.6745 8.278 75.3665 7.926C75.0585 7.55933 74.5965 7.376 73.9805 7.376C73.3645 7.376 72.8805 7.58867 72.5285 8.014C72.1765 8.43933 72.0005 9.048 72.0005 9.84V13.36H74.5085V16H66.9845V13.36H69.2285V7.728H67.2485V5.088ZM83.6893 11.446C83.7039 11.7687 83.7773 12.0693 83.9093 12.348C84.0559 12.612 84.2466 12.8467 84.4813 13.052C84.7306 13.2427 85.0093 13.3967 85.3173 13.514C85.6399 13.6167 85.9773 13.668 86.3293 13.668C87.0186 13.668 87.5466 13.5507 87.9133 13.316C88.2799 13.0667 88.5439 12.7733 88.7053 12.436L91.0813 13.756C90.9493 14.0347 90.7659 14.328 90.5312 14.636C90.2966 14.9293 89.9886 15.2007 89.6073 15.45C89.2406 15.6993 88.7859 15.9047 88.2433 16.066C87.7153 16.2273 87.0919 16.308 86.3733 16.308C85.5519 16.308 84.8039 16.176 84.1293 15.912C83.4546 15.648 82.8679 15.2667 82.3693 14.768C81.8853 14.2693 81.5039 13.6607 81.2253 12.942C80.9613 12.2233 80.8293 11.4093 80.8293 10.5V10.368C80.8293 9.532 80.9686 8.76933 81.2473 8.08C81.5406 7.39067 81.9366 6.804 82.4352 6.32C82.9339 5.836 83.5133 5.462 84.1733 5.198C84.8479 4.91933 85.5666 4.78 86.3293 4.78C87.2679 4.78 88.0746 4.94867 88.7493 5.286C89.4239 5.60867 89.9813 6.02667 90.4213 6.54C90.8613 7.03867 91.1839 7.596 91.3893 8.212C91.5946 8.81333 91.6973 9.4 91.6973 9.972V11.446H83.6893ZM86.3073 7.288C85.6033 7.288 85.0313 7.47133 84.5913 7.838C84.1513 8.19 83.8653 8.60067 83.7333 9.07H88.8813C88.7933 8.55667 88.5146 8.13133 88.0453 7.794C87.5906 7.45667 87.0113 7.288 86.3073 7.288Z" fill="white"/>
</svg>
